<?xml version="1.0" encoding="UTF-8"?>
<svg id="Coconut" xmlns="http://www.w3.org/2000/svg" version="1.1" viewBox="0 0 800 800">
  <!-- Generator: Adobe Illustrator 29.4.0, SVG Export Plug-In . SVG Version: 2.1.0 Build 152)  -->
  <defs>
    <style>
      .st0 {
        fill: #99bd70;
      }

      .st1 {
        fill: #4c7005;
      }

      .st2 {
        fill: #78aa25;
      }

      .st3 {
        fill: #568804;
      }

      .st4 {
        fill: #4b7c23;
      }

      .st5 {
        fill: #a0ca49;
      }

      .st6 {
        fill: #eadbc8;
      }

      .st7 {
        fill: #669614;
      }

      .st8 {
        fill: #688e0c;
      }

      .st9 {
        fill: #f0d5b0;
      }
    </style>
  </defs>
  <g id="Tender_Coconut">
    <g>
      <g id="full-coconut">
        <path class="st3" d="M545.71,402.21c0,130.57-93.95,242.28-191.14,287.89-30.19,14.16-37.86-26.85-72.34-26.85-41.35,0-55.21,37.6-90.04,17.64-87.72-50.29-173.43-156.18-173.43-278.67,0-171.12,117.96-309.84,263.48-309.84s263.48,138.72,263.48,309.84h-.01Z"/>
        <path class="st7" d="M145.83,402.21c0-145.35,85.12-267.27,199.94-300.72-20.36-5.93-41.62-9.13-63.54-9.13C136.72,92.36,18.76,231.09,18.76,402.21c0,122.49,85.71,228.38,173.44,278.67,34.82,19.97,48.69-17.64,90.04-17.64,4.56,0,8.62.75,12.35,1.96-78.44-54.73-148.75-152.05-148.75-262.99h-.01Z"/>
        <path class="st8" d="M82.29,402.21c0-158.47,101.19-289.06,231.71-307.52-10.42-1.48-21.01-2.32-31.77-2.32C136.71,92.37,18.75,231.09,18.75,402.21c0,122.49,85.71,228.38,173.44,278.67,21.71,12.44,35.28,2.52,52.43-6.72-83.71-52.6-162.32-154.64-162.32-271.96h0Z"/>
        <path class="st1" d="M282.23,92.36c-62.16,0-119.24,25.37-164.29,67.7-4.47,4.19-8.85,8.51-13.08,13.03l3.01,4.79c28.14,28.16,73.76,28.16,101.9,0l4.73,4.73c24.56,24.57,64.36,24.57,88.92,0,28.11,28.13,73.68,28.13,101.79,0l1.46-1.46.64-.64c.23.27.51.48.75.74,15.69,17.02,43.87,14.96,59.71,4.36.61-.41,1.22-.82,1.8-1.26-47.78-56.79-114.04-92-187.33-92h0Z"/>
        <path class="st1" d="M282.23,104.86h-.27c-3.43-.08-6.67-1.56-8.98-4.09l-61.25-67.36c-4.64-5.11-4.27-13.01.84-17.66s13.01-4.26,17.66.84l52.39,57.63,47.36-47.75c4.86-4.91,12.78-4.93,17.67-.08,4.91,4.86,4.94,12.78.08,17.68l-56.63,57.09c-2.34,2.36-5.54,3.69-8.87,3.69h0Z"/>
        <ellipse class="st5" cx="232.13" cy="323.48" rx="11.15" ry="14.06"/>
        <ellipse class="st0" cx="338.86" cy="378.66" rx="11.15" ry="14.06"/>
        <ellipse class="st2" cx="243.28" cy="461.53" rx="11.15" ry="14.06"/>
        <ellipse class="st0" cx="321.48" cy="258.81" rx="11.15" ry="14.06"/>
      </g>
      <g id="half-coconut">
        <path class="st4" d="M472.8,776.86c30.39,17.42,42.48-15.39,78.56-15.39,30.09,0,36.78,35.79,63.11,23.43,84.81-39.79,166.77-137.26,166.77-251.18h-459.77c0,106.88,74.78,199.27,151.33,243.14Z"/>
        <ellipse class="st6" cx="551.36" cy="533.72" rx="229.89" ry="112.41"/>
        <path class="st9" d="M551.36,613.14c-129.25,0-196.97-59.01-196.97-79.43s67.73-79.43,196.97-79.43,196.98,59.01,196.98,79.43-67.73,79.43-196.98,79.43Z"/>
        <ellipse class="st0" cx="480.69" cy="707.13" rx="11.15" ry="14.06"/>
        <ellipse class="st2" cx="625.87" cy="674.67" rx="11.15" ry="14.06"/>
      </g>
    </g>
  </g>
</svg>