<?xml version="1.0" encoding="UTF-8"?>
<svg id="Kiwi" xmlns="http://www.w3.org/2000/svg" version="1.1" viewBox="0 0 800 800">
  <!-- Generator: Adobe Illustrator 29.4.0, SVG Export Plug-In . SVG Version: 2.1.0 Build 152)  -->
  <defs>
    <style>
      .st0 {
        fill: #9b9f1a;
      }

      .st1 {
        fill: #fffee9;
      }

      .st2 {
        fill: #7d4b12;
      }

      .st3 {
        fill: #443a00;
      }

      .st4 {
        fill: #63271d;
      }

      .st5 {
        fill: #75480c;
      }

      .st6 {
        fill: #286f0d;
      }

      .st7 {
        fill: #f6e177;
      }

      .st8 {
        fill: #88550d;
      }

      .st9 {
        fill: #66410c;
      }
    </style>
  </defs>
  <g id="_x32_6_Kiwi">
    <g>
      <g id="full-kiwi">
        <g>
          <path class="st6" d="M240.06,71.39c-22.53,33.37-25.29,72.37-11.42,106.31,40.18-5.04,77.56-25.52,100.08-58.89s25.29-72.37,11.42-106.31c-40.18,5.04-77.56,25.53-100.08,58.89h0Z"/>
          <path class="st4" d="M231.66,261.19c-6.9,0-12.5-5.6-12.5-12.5v-46.23c0-31.03-16.28-59.72-43.53-76.74-5.86-3.66-7.64-11.37-3.98-17.23s11.36-7.64,17.23-3.98c34.62,21.62,55.29,58.24,55.29,97.95v46.23c0,6.91-5.59,12.5-12.5,12.5h-.01Z"/>
        </g>
        <ellipse class="st2" cx="234.81" cy="473.22" rx="197.31" ry="239.44"/>
        <path class="st5" d="M121.65,473.22c0-114.71,66.49-210.53,155.24-233.94-13.56-3.57-27.63-5.51-42.07-5.51-108.98,0-197.31,107.21-197.31,239.45s88.34,239.44,197.31,239.44c14.44,0,28.51-1.94,42.07-5.51-88.75-23.4-155.24-119.22-155.24-233.93h0Z"/>
        <path class="st9" d="M82.81,473.22c0-122.94,76.36-224.18,174.66-237.82-7.44-1.03-14.99-1.62-22.66-1.62-108.97,0-197.31,107.2-197.31,239.44s88.34,239.44,197.31,239.44c7.67,0,15.22-.59,22.66-1.62-98.29-13.64-174.66-114.89-174.66-237.83h0Z"/>
        <path class="st8" d="M181.19,311.85c18.12,19.28,52.84,61.39,102.42,0,0,0,40.97-4.14,64.78-34.38-32.12-27.49-71.27-43.7-113.57-43.7s-80.33,15.73-112.19,42.51c8.63,16.69,25.45,33.26,58.56,35.57h0Z"/>
        <path class="st1" d="M122.42,561.31c-5.61,0-10.71-3.8-12.12-9.49-5.79-23.31-8.72-47.57-8.72-72.14,0-32.89,5.19-64.86,15.43-95.05,2.21-6.54,9.31-10.01,15.85-7.82,6.54,2.22,10.04,9.31,7.83,15.86-9.36,27.59-14.1,56.87-14.1,87.02,0,22.53,2.69,44.78,7.98,66.13,1.66,6.69-2.42,13.47-9.12,15.14-1.02.25-2.03.37-3.03.37v-.02Z"/>
        <path class="st1" d="M153.31,613.88c-3.31,0-6.44-1.31-8.81-3.69-.63-.56-1.13-1.19-1.56-1.88-.5-.69-.87-1.44-1.19-2.19-.31-.75-.5-1.49-.69-2.31-.19-.81-.25-1.63-.25-2.44s.13-1.63.25-2.44c.19-.81.37-1.63.69-2.37.31-.75.75-1.44,1.19-2.13.44-.68.94-1.31,1.56-1.94.56-.56,1.19-1.06,1.87-1.5.69-.5,1.44-.87,2.19-1.18.75-.32,1.5-.56,2.31-.69,1.63-.37,3.25-.37,4.88,0,.81.13,1.63.37,2.37.69.75.31,1.44.68,2.13,1.18.69.44,1.31.94,1.94,1.5.56.62,1.06,1.25,1.5,1.94.5.69.87,1.38,1.19,2.13.31.74.56,1.56.69,2.37.19.81.25,1.63.25,2.44s-.06,1.63-.25,2.44c-.13.82-.37,1.56-.69,2.31-.31.75-.69,1.5-1.13,2.19-.5.68-1,1.31-1.56,1.88-.63.62-1.25,1.13-1.94,1.56-.69.44-1.37.87-2.13,1.18-.75.32-1.56.5-2.37.69-.75.19-1.63.26-2.44.26Z"/>
      </g>
      <g id="half-kiwi">
        <path class="st0" d="M762.5,594.79c0,106.43-87.76,192.71-196.02,192.71s-193.58-88.8-196.02-192.71c-2.5-106.4,87.76-192.71,196.02-192.71s196.02,86.28,196.02,192.71Z"/>
        <g>
          <ellipse class="st7" cx="566.48" cy="582.29" rx="50.52" ry="49.34"/>
          <path class="st9" d="M566.48,761.67c-103.84,0-188.77-79.39-195.54-179.79-.29,4.27-.49,8.57-.49,12.92,0,106.43,87.76,192.71,196.02,192.71s196.02-86.28,196.02-192.71c0-4.34-.2-8.64-.49-12.92-6.77,100.4-91.69,179.79-195.54,179.79h.02Z"/>
          <g>
            <path class="st3" d="M566.48,497.42c-6.9,0-12.5-5.6-12.5-12.5v-45.61c0-6.9,5.6-12.5,12.5-12.5s12.5,5.6,12.5,12.5v45.61c0,6.9-5.59,12.5-12.5,12.5h0Z"/>
            <path class="st3" d="M495.98,525.94c-3.15,0-6.3-1.18-8.73-3.56l-33.02-32.25c-4.94-4.82-5.03-12.74-.21-17.68,4.83-4.94,12.74-5.03,17.68-.21l33.02,32.25c4.94,4.82,5.03,12.74.21,17.68-2.45,2.51-5.7,3.76-8.94,3.76h0Z"/>
            <path class="st3" d="M466.78,594.79h-46.69c-6.9,0-12.5-5.6-12.5-12.5s5.6-12.5,12.5-12.5h46.69c6.9,0,12.5,5.6,12.5,12.5s-5.59,12.5-12.5,12.5Z"/>
            <path class="st3" d="M462.96,695.89c-3.25,0-6.49-1.26-8.94-3.77-4.83-4.94-4.73-12.86.21-17.68l33.02-32.24c4.94-4.82,12.86-4.73,17.68.21,4.83,4.94,4.73,12.86-.21,17.68l-33.02,32.24c-2.43,2.37-5.58,3.56-8.73,3.56h0Z"/>
            <path class="st3" d="M566.48,737.77c-6.9,0-12.5-5.6-12.5-12.5v-45.61c0-6.9,5.6-12.5,12.5-12.5s12.5,5.6,12.5,12.5v45.61c0,6.9-5.59,12.5-12.5,12.5Z"/>
            <path class="st3" d="M669.99,695.89c-3.15,0-6.3-1.18-8.73-3.56l-33.02-32.24c-4.94-4.82-5.03-12.74-.21-17.68s12.74-5.03,17.68-.21l33.02,32.24c4.94,4.82,5.03,12.74.21,17.68-2.45,2.51-5.69,3.76-8.94,3.76h-.01Z"/>
            <path class="st3" d="M712.87,594.79h-46.69c-6.9,0-12.5-5.6-12.5-12.5s5.6-12.5,12.5-12.5h46.69c6.9,0,12.5,5.6,12.5,12.5s-5.6,12.5-12.5,12.5Z"/>
            <path class="st3" d="M636.98,525.94c-3.25,0-6.49-1.26-8.94-3.77-4.83-4.94-4.73-12.86.21-17.68l33.02-32.25c4.94-4.82,12.86-4.73,17.68.21,4.83,4.94,4.73,12.86-.21,17.68l-33.02,32.25c-2.43,2.38-5.59,3.56-8.73,3.56h-.01Z"/>
          </g>
        </g>
      </g>
    </g>
  </g>
</svg>