<?xml version="1.0" encoding="UTF-8"?>
<svg id="Lemon" xmlns="http://www.w3.org/2000/svg" version="1.1" viewBox="0 0 800 800">
  <!-- Generator: Adobe Illustrator 29.4.0, SVG Export Plug-In . SVG Version: 2.1.0 Build 152)  -->
  <defs>
    <style>
      .st0 {
        fill: #fd9808;
      }

      .st1 {
        fill: #ffdd09;
      }
    </style>
  </defs>
  <g id="top-lemon">
    <path class="st0" d="M311.99,311.97c86.67-86.67,197.34-126.67,292.02-114.67-4-33.33-14.67-65.34-33.33-92.01l12-12c16-16,16-41.34,0-56-16-16-41.34-16-56,0l-12,12C410.67-18.72,247.99,13.29,130.65,130.63,13.31,247.97-18.69,410.64,47.98,513.32l-12,12c-16,16-16,41.34,0,56,16,16,41.34,16,56,0l12-12c26.67,17.33,58.67,28,92.01,33.33-10.67-93.34,29.33-204.01,116.01-290.68"/>
    <path class="st1" d="M281.33,281.3c86.67-86.67,197.34-126.67,292.02-114.67-4-33.33-14.67-65.34-33.33-92.01l12-12c16-16,16-20,0-36s-30.67-2.67-46.67,13.33l-22.67-1.33C416-5.38,201.32,51.96,119.98,133.29,41.31,211.97-5.36,419.98,37.31,483.98l-12,12c4-4,4,61.34,0,56,16,16,22.67,16,37.33,0l12-12c26.67,17.33,58.67,28,92.01,33.33-12-93.34,28-205.34,114.67-292.02"/>
    <path d="M119.98,333.31c-8,0-13.33-5.33-13.33-13.33,0-132.01,120.01-240.01,266.68-240.01,8,0,13.33,5.33,13.33,13.33s-5.33,13.33-13.33,13.33c-132.01,0-240.01,96.01-240.01,213.35,0,8-5.33,13.34-13.34,13.34h0Z"/>
    <path d="M197.32,615.99h-1.33c-33.33-4-62.67-13.33-89.34-29.33l-5.33,5.33c-10.67,10.67-24,16-37.33,16-14.67,0-28-5.33-37.33-16-10.67-10.67-16-24-16-37.34,0-14.67,5.33-28,16-37.34l5.33-5.33C-33.36,401.31,3.98,238.64,121.32,121.29,238.66,3.95,401.33-33.38,512.01,31.96l5.33-5.33c10.67-10.67,24-16,37.34-16,14.67,0,28,5.33,37.34,16,10.67,10.67,16,24,16,37.33,0,14.67-5.33,28-16,37.33l-5.33,5.33c14.67,26.67,25.33,56,29.33,88.01,0,4-1.33,8-4,10.67s-6.67,4-10.67,4c-93.34-12-200.01,30.67-280.02,110.67h0c-80,80-122.67,188.01-110.67,280.02,0,4-1.33,8-4,10.67-2.67,4-6.67,5.33-9.33,5.33h-.01ZM105.32,557.32c2.67,0,5.33,1.33,6.67,2.67,20,13.33,44,22.67,69.34,28-5.33-96.01,38.67-204.01,120.01-285.35h0c81.34-81.34,189.34-125.34,285.35-120.01-5.33-25.33-14.67-49.34-28-69.34-4-5.33-2.67-12,1.33-17.33l13.33-13.33c10.67-10.67,10.67-26.67,0-37.33s-28-10.67-37.34,0l-12,12c-4,4-12,5.33-17.33,1.33C408-5.38,250.66,27.96,139.98,138.63,29.31,250.64-5.36,407.98,59.98,506.65c4,5.33,2.67,12-1.33,17.33l-12,12c-5.33,5.33-8,12-8,18.67s2.67,13.33,8,18.67c10.67,10.67,26.67,10.67,37.33,0l12-12c2.67-2.67,5.33-4,9.33-4h.01ZM311.99,311.97h0Z"/>
  </g>
  <g id="lemon">
    <g id="bottom-lemon">
      <path class="st0" d="M694.68,229.3c-104.01-68-266.68-36-384.02,81.34-117.34,117.34-149.34,280.02-81.34,384.02l-12,12c-16,16-16,41.34,0,56,16,14.67,41.34,16,56,0l12-12c104.01,68,266.68,36,384.02-81.34s149.34-280.02,81.34-384.02l12-12c16-16,16-41.34,0-56-16-16-41.34-16-56,0l-12,12h0Z"/>
      <path class="st1" d="M676.02,226.63c-94.67-60-248.01-20-361.35,93.34s-148.01,281.35-88.01,376.02l-12,12c-14.67,14.67-14.67,38.67-1.33,53.34,14.67,14.67,37.34,13.33,53.34-1.33l12-12c94.67,60,248.01,25.33,361.35-88.01s148.01-266.68,88.01-361.35l12-12c14.67-14.67,16-38.67,1.33-53.34s-37.34-13.33-53.34,1.33l-12-8h0Z"/>
      <path d="M412,800c-44,0-86.67-10.67-124.01-32l-5.33,5.33c-21.33,21.33-54.67,21.33-76,0s-21.33-54.67,0-76l6.67-4c-65.34-110.67-28-273.35,89.34-390.69,117.34-117.34,280.02-154.68,390.69-89.34l5.33-5.33c10.67-10.67,24-16,37.34-16,14.67,0,28,5.33,37.34,16,10.67,10.67,16,24,16,37.34,0,14.67-5.33,28-16,37.34l-5.33,5.33c65.34,110.67,28,273.35-89.34,390.69-78.67,78.67-177.34,121.34-266.68,121.34h-.02ZM286.66,738.66c2.67,0,5.33,1.33,6.67,2.67,98.67,64,256.01,30.67,366.69-80s145.34-268.02,80-366.69c-4-5.33-2.67-12,1.33-17.33l12-12c5.33-5.33,8-12,8-18.67s-2.67-13.33-8-18.67c-10.67-10.67-28-10.67-37.34,0l-12,12c-4,4-12,5.33-17.33,1.33-98.67-64-256.01-30.67-366.69,80-110.67,110.67-145.34,268.02-80,366.69,4,5.33,2.67,12-1.33,17.33l-12,12c-10.67,10.67-10.67,26.67,0,37.34,10.67,10.67,26.67,10.67,37.34,0l12-12c2.67-2.67,6.67-4,10.67-4h-.01Z"/>
      <path d="M293.33,519.98c-8,0-13.33-5.33-13.33-13.33,0-132.01,120.01-240.01,266.68-240.01,8,0,13.33,5.33,13.33,13.33s-5.33,13.33-13.33,13.33c-132.01,0-240.01,96.01-240.01,213.35,0,8-5.33,13.34-13.34,13.34h0Z"/>
    </g>
  </g>
</svg>