<?xml version="1.0" encoding="UTF-8"?>
<svg id="Orange" xmlns="http://www.w3.org/2000/svg" version="1.1" viewBox="0 0 800 800">
  <!-- Generator: Adobe Illustrator 29.4.0, SVG Export Plug-In . SVG Version: 2.1.0 Build 152)  -->
  <defs>
    <style>
      .st0 {
        fill: #fc7f10;
      }

      .st1 {
        fill: #f8a200;
      }

      .st2 {
        fill: #f87302;
      }

      .st3 {
        fill: #fff;
      }

      .st4 {
        fill: #ff7b22;
      }

      .st5 {
        fill: #f8dc91;
      }

      .st6 {
        fill: #f9dcc7;
      }

      .st7 {
        fill: #f5d7d5;
      }

      .st8 {
        fill: #63271d;
      }

      .st9 {
        fill: #286f0d;
      }
    </style>
  </defs>
  <g id="_x30_2_Orange">
    <g>
      <g id="full-orange">
        <g>
          <path class="st9" d="M254.47,63.78c-18.59,29.06-20.88,63.01-9.42,92.57,33.16-4.38,64-22.22,82.59-51.28s20.88-63.02,9.42-92.57c-33.15,4.38-64,22.23-82.59,51.28h0Z"/>
          <path class="st8" d="M247.54,214.74c-6.9,0-12.5-5.6-12.5-12.5v-24.34c0-26.58-13.14-51.11-35.16-65.62-5.76-3.79-7.36-11.55-3.56-17.32,3.79-5.76,11.55-7.36,17.32-3.56,29.05,19.14,46.39,51.48,46.39,86.49v24.34c0,6.91-5.59,12.5-12.5,12.5h.01Z"/>
        </g>
        <ellipse class="st2" cx="244.11" cy="434.88" rx="231.61" ry="232.64"/>
        <path class="st4" d="M128.75,434.88c0-108.32,73.7-199.34,173.48-225.25-18.58-4.82-38.05-7.39-58.12-7.39-127.91,0-231.61,104.16-231.61,232.64s103.69,232.64,231.61,232.64c20.07,0,39.55-2.57,58.12-7.39-99.78-25.91-173.48-116.93-173.48-225.25h0Z"/>
        <path class="st0" d="M77.08,434.88c0-117.47,86.69-214.55,199.31-230.34-10.56-1.48-21.32-2.3-32.29-2.3-127.91,0-231.6,104.16-231.6,232.64s103.69,232.64,231.61,232.64c10.96,0,21.73-.82,32.29-2.3-112.62-15.79-199.32-112.88-199.32-230.34h0Z"/>
        <path class="st6" d="M92.49,496.73c-5.76,0-10.94-4.01-12.21-9.88-3.65-16.97-5.5-34.46-5.5-51.97,0-45.8,12.66-90.47,36.61-129.19,3.63-5.86,11.33-7.69,17.21-4.05,5.87,3.63,7.68,11.33,4.05,17.21-21.51,34.77-32.88,74.89-32.88,116.04,0,15.76,1.66,31.47,4.94,46.72,1.45,6.75-2.84,13.4-9.59,14.84-.88.19-1.77.28-2.64.28h0Z"/>
        <path class="st6" d="M107.25,533.37c-3.25,0-6.5-1.31-8.81-3.69-2.31-2.31-3.69-5.5-3.69-8.81,0-.81.13-1.63.25-2.44.19-.81.44-1.56.75-2.31s.69-1.5,1.13-2.19c.44-.69,1-1.31,1.56-1.88.56-.62,1.19-1.13,1.87-1.56.69-.44,1.44-.87,2.19-1.19s1.56-.5,2.31-.69c4.06-.81,8.38.5,11.31,3.44.56.56,1.06,1.19,1.56,1.88.44.69.81,1.44,1.13,2.19.31.75.56,1.5.69,2.31.19.81.25,1.63.25,2.44,0,3.31-1.31,6.5-3.62,8.81-2.31,2.37-5.56,3.69-8.88,3.69Z"/>
      </g>
      <g id="half-orange">
        <ellipse class="st1" cx="554.62" cy="554.02" rx="232.88" ry="233.48"/>
        <path class="st5" d="M554.61,768.13c-117.73,0-213.51-96.04-213.51-214.09s95.78-214.1,213.51-214.1,213.51,96.04,213.51,214.1-95.78,214.09-213.51,214.09Z"/>
        <path class="st0" d="M554.61,748.75c-107.04,0-194.13-87.35-194.13-194.72s87.09-194.72,194.13-194.72,194.14,87.35,194.14,194.72-87.09,194.72-194.14,194.72Z"/>
        <g>
          <path class="st2" d="M554.62,554.02l-46.12-140.66c-5.51-16.81,3.89-34.83,21-40.24l.21-.07c16.28-5.15,33.8-5.14,50.08.04h0c17.08,5.43,26.46,23.44,20.95,40.22l-46.12,140.71h0Z"/>
          <path class="st2" d="M554.62,554.02l-148.52-31.56c-17.75-3.77-29.12-20.69-25.39-37.78l.04-.21c3.54-16.27,12.32-30.99,25.07-42.09h0c13.39-11.65,34.13-10.53,46.36,2.49l102.44,109.15Z"/>
          <path class="st2" d="M554.62,554.02l-102.4,109.11c-12.24,13.04-33.01,14.14-46.39,2.46l-.17-.14c-12.74-11.12-21.49-25.86-25.01-42.13h0c-3.69-17.08,7.68-33.96,25.4-37.73l148.56-31.57h.01Z"/>
          <path class="st2" d="M554.62,554.02l46.11,140.67c5.51,16.81-3.89,34.83-21,40.24l-.21.07c-16.28,5.15-33.8,5.14-50.08-.04h0c-17.08-5.43-26.46-23.44-20.95-40.22l46.12-140.72h.01Z"/>
          <path class="st2" d="M554.62,554.02l148.52,31.56c17.75,3.77,29.12,20.69,25.39,37.78l-.04.21c-3.54,16.27-12.32,30.99-25.07,42.09h0c-13.39,11.65-34.13,10.53-46.36-2.49l-102.44-109.15h0Z"/>
          <path class="st2" d="M554.62,554.02l102.4-109.11c12.24-13.04,33.01-14.14,46.39-2.46l.17.14c12.74,11.12,21.49,25.86,25.01,42.13h0c3.69,17.08-7.67,33.96-25.4,37.73l-148.56,31.57h-.01Z"/>
          <path class="st3" d="M554.61,427.81c-6.9,0-12.5-5.6-12.5-12.5v-26.73c0-6.9,5.6-12.5,12.5-12.5s12.5,5.6,12.5,12.5v26.73c0,6.91-5.59,12.5-12.5,12.5Z"/>
          <path class="st3" d="M434.03,500.41c-2.08,0-4.19-.52-6.14-1.62l-23.66-13.37c-6.01-3.39-8.13-11.02-4.73-17.03,3.39-6.01,11.02-8.13,17.03-4.73l23.66,13.37c6.01,3.39,8.13,11.02,4.73,17.03-2.3,4.06-6.53,6.35-10.89,6.35h0Z"/>
          <path class="st3" d="M403.94,646.03c-4.36,0-8.6-2.29-10.9-6.36-3.39-6.01-1.27-13.64,4.74-17.03l23.66-13.36c6.02-3.39,13.64-1.28,17.03,4.74s1.28,13.64-4.74,17.03l-23.66,13.36c-1.94,1.1-4.05,1.62-6.13,1.62Z"/>
          <path class="st3" d="M554.62,731.98c-6.9,0-12.5-5.6-12.5-12.5v-26.73c0-6.9,5.6-12.5,12.5-12.5s12.5,5.6,12.5,12.5v26.73c0,6.9-5.6,12.5-12.5,12.5Z"/>
          <path class="st3" d="M705.3,646.02c-2.08,0-4.19-.52-6.14-1.62l-23.66-13.37c-6.01-3.39-8.13-11.02-4.73-17.03,3.39-6.01,11.02-8.13,17.03-4.73l23.66,13.37c6.01,3.39,8.13,11.02,4.73,17.03-2.3,4.07-6.54,6.35-10.89,6.35Z"/>
          <path class="st3" d="M681.65,500.39c-4.36,0-8.59-2.29-10.89-6.36-3.39-6.01-1.28-13.64,4.73-17.03l23.66-13.37c6.02-3.41,13.64-1.28,17.03,4.73s1.28,13.64-4.73,17.03l-23.66,13.37c-1.94,1.1-4.06,1.62-6.14,1.62h0Z"/>
        </g>
        <ellipse class="st7" cx="554.62" cy="554.02" rx="53.14" ry="53.36"/>
      </g>
    </g>
  </g>
</svg>