<?xml version="1.0" encoding="UTF-8"?>
<svg id="Peach" xmlns="http://www.w3.org/2000/svg" version="1.1" viewBox="0 0 800 800">
  <!-- Generator: Adobe Illustrator 29.4.0, SVG Export Plug-In . SVG Version: 2.1.0 Build 152)  -->
  <defs>
    <style>
      .st0 {
        fill: #f7ddac;
      }

      .st1 {
        fill: #c61632;
      }

      .st2 {
        fill: #a60f26;
      }

      .st3 {
        fill: #f9dcc7;
      }

      .st4 {
        fill: #63271d;
      }

      .st5 {
        fill: #bd1331;
      }

      .st6 {
        fill: #f8b772;
      }

      .st7 {
        fill: #286f0d;
      }

      .st8 {
        fill: #850e11;
      }

      .st9 {
        fill: #191200;
      }
    </style>
  </defs>
  <g id="full-peach">
    <g id="leaf">
      <path class="st7" d="M282.39,70.14c-20.98,32.66-23.56,70.84-10.64,104.06,37.42-4.93,72.24-24.98,93.23-57.64s23.56-70.84,10.64-104.06c-37.42,4.93-72.24,24.98-93.23,57.64Z"/>
      <path class="st4" d="M274.57,227.14c-6.9,0-12.5-5.6-12.5-12.5v-16.21c0-30.4-15.1-58.45-40.38-75.04-5.77-3.79-7.38-11.54-3.59-17.31s11.53-7.38,17.31-3.59c32.36,21.23,51.67,57.1,51.67,95.95v16.21c0,6.9-5.6,12.5-12.51,12.5Z"/>
    </g>
    <path class="st2" d="M350.3,671.72c63.11-14.48,138.12-94.87,162.33-177.58,20.39-64.96,18.61-120.29,10.79-161.02-14.78-76.99-77.99-136.11-154.73-139.63-2.72-.13-5.45-.19-8.19-.19-27.94,0-54.33,6.55-77.82,18.14-4.85,2.39-10.53,2.39-15.38,0-23.49-11.59-49.88-18.14-77.82-18.14-97.75,0-176.99,70.32-176.99,177.93,0,148.62,85.81,358.3,337.8,300.49Z"/>
    <path d="M120.94,515.44c-.81,0-1.63-.06-2.44-.25-.81-.12-1.56-.37-2.31-.69-.81-.31-1.5-.69-2.19-1.13-.69-.5-1.31-1-1.87-1.56-2.37-2.37-3.69-5.56-3.69-8.87s1.31-6.5,3.69-8.81c2.87-2.94,7.19-4.25,11.25-3.44.81.19,1.63.44,2.37.75.75.31,1.44.69,2.13,1.13s1.31,1,1.94,1.56c2.31,2.31,3.62,5.56,3.62,8.81s-1.31,6.5-3.62,8.87c-.63.56-1.25,1.06-1.94,1.56-.69.44-1.37.81-2.13,1.13s-1.56.56-2.37.69c-.81.19-1.63.25-2.44.25Z"/>
    <path class="st1" d="M141.67,371.24c0-81.82,45.83-142.04,110.76-166.23-19.56-7.51-40.75-11.7-62.94-11.7-97.74,0-176.98,70.32-176.98,177.93,0,145.91,82.73,350.65,324.2,303.36-142.76-34.18-195.03-187.37-195.03-303.36Z"/>
    <path class="st5" d="M77.08,371.24c0-95.12,61.93-161.07,143.81-175.1-10.19-1.84-20.69-2.83-31.41-2.83-97.74,0-176.98,70.32-176.98,177.93,0,138.7,74.76,330.54,289.55,308.56-165.44-18.71-224.97-184.79-224.97-308.56Z"/>
    <path class="st3" d="M99.64,475c-5.71,0-10.86-3.93-12.17-9.72-6.96-30.58-10.65-63.1-10.65-94.04,0-19.78,2.55-38.91,7.58-56.86,1.86-6.64,8.76-10.54,15.41-8.66,6.64,1.86,10.53,8.76,8.66,15.41-4.42,15.75-6.66,32.61-6.66,50.11,0,29.1,3.47,59.7,10.03,88.49,1.53,6.73-2.68,13.43-9.41,14.97-.93.2-1.86.31-2.79.31Z"/>
    <path class="st6" d="M294.32,441.72c2.5,2.38,5.71,3.57,8.91,3.57,3.41,0,6.81-1.34,9.36-4.01,4.92-5.16,4.73-13.34-.44-18.26-4.37-4.16-105.98-103.12-19.68-203.13,3.37-3.91,3.95-9.24,1.99-13.66-3.99,1.62-7.93,3.33-11.77,5.22-4.85,2.39-10.53,2.39-15.38,0-.29-.14-.58-.26-.87-.4-90.09,115.69,26.67,229.51,27.89,230.67Z"/>
  </g>
  <g id="half-peach">
    <path class="st0" d="M636.04,779.09c53.52-12.38,117.14-81.14,137.67-151.87,17.29-55.56,15.79-102.87,9.15-137.72-12.54-65.85-66.14-116.41-131.22-119.42-2.3-.11-4.62-.16-6.95-.16-23.69,0-46.08,5.6-66,15.52-4.11,2.05-8.93,2.05-13.04,0-19.92-9.92-42.31-15.52-66-15.52-82.89,0-153.88,60.22-150.09,152.17,5.24,127.22,72.78,306.44,286.49,257Z"/>
    <path class="st8" d="M773.72,601.38c-20.54,70.74-84.15,139.49-137.67,151.88-205.51,47.54-280.65-116.44-286.12-242.13-.22,3.61-.36,7.25-.36,10.97,0,127.11,72.77,306.44,286.48,257,53.52-12.38,117.14-81.14,137.67-151.88,11.82-37.99,14.85-72.13,13.47-101.06-1.06,22.77-5,47.99-13.47,75.22Z"/>
    <g id="half-peach-seed">
      <ellipse id="seed-fill" class="st8" cx="568.53" cy="565.79" rx="82.58" ry="122.71"/>
      <path id="seed3" class="st9" d="M588.85,578.29h-32.46c-6.9,0-12.5-5.6-12.5-12.5s5.6-12.5,12.5-12.5h32.46c6.9,0,12.5,5.6,12.5,12.5s-5.6,12.5-12.5,12.5Z"/>
      <path id="seed2" class="st9" d="M588.85,524.61h-32.46c-6.9,0-12.5-5.6-12.5-12.5s5.6-12.5,12.5-12.5h32.46c6.9,0,12.5,5.6,12.5,12.5s-5.6,12.5-12.5,12.5Z"/>
      <path id="seed1" class="st9" d="M588.85,631.97h-32.46c-6.9,0-12.5-5.6-12.5-12.5s5.6-12.5,12.5-12.5h32.46c6.9,0,12.5,5.6,12.5,12.5s-5.6,12.5-12.5,12.5Z"/>
    </g>
  </g>
</svg>