<?xml version="1.0" encoding="UTF-8"?>
<svg id="Strawberry" xmlns="http://www.w3.org/2000/svg" version="1.1" viewBox="0 0 800 800">
  <!-- Generator: Adobe Illustrator 29.4.0, SVG Export Plug-In . SVG Version: 2.1.0 Build 152)  -->
  <defs>
    <style>
      .st0 {
        fill: #f49d5b;
      }

      .st1 {
        fill: #df2b2b;
      }

      .st2 {
        fill: #46670c;
      }

      .st3 {
        fill: #cc0917;
      }

      .st4 {
        fill: #f1c3a7;
      }

      .st5 {
        fill: #f57a55;
      }

      .st6 {
        fill: #b7252c;
      }

      .st7 {
        fill: #d1262c;
      }
    </style>
  </defs>
  <g id="_x31_5_Strawberry">
    <g>
      <g id="full-berry">
        <path class="st1" d="M501.24,270.86c-61.14-153.14-241.01-52.28-241.01-52.28,0,0-179.57-100.86-240.72,52.28-41.08,102.89,108.27,253.83,190.43,326.68,28.83,25.57,72.59,25.49,101.48-.01,82.32-72.64,231.29-222.8,189.82-326.67h0Z"/>
        <path class="st7" d="M135.76,270.86c16.28-40.76,40.94-63.52,68.38-74.99-58.04-17.01-145.54-22.93-184.63,74.99-41.08,102.89,108.27,253.83,190.43,326.68,28.83,25.57,72.59,25.49,101.48-.01,2.41-2.12,4.88-4.33,7.39-6.58-83.35-75.05-222.94-220.21-183.06-320.09h0Z"/>
        <path class="st6" d="M274.52,597.54c-82.16-72.86-231.51-223.8-190.43-326.68,20.59-51.58,54.62-74.33,90.71-81.83-55.08-9.44-122.36-.65-155.29,81.83-41.08,102.89,108.27,253.83,190.43,326.68,23.18,20.56,55.99,24.49,82.98,12.02-6.55-3.04-12.77-7.03-18.4-12.02Z"/>
        <path class="st2" d="M169.42,158.83c-11.86,2.75-23.71,3.99-33.27,2.32,0,0,1.86,18.56,34.06,44.63-13.15,12.91-27.37,34.04-34.06,68.12,0,0,41.95,21.67,81.03,7.33,4.82,17.64,16.34,40.3,43.04,63.02,0,0,40.08-24.84,46.97-65.25,17.96,4.73,43.71,6.26,77.1-5.09,0,0-1.86-46.51-34.06-72.57,13.15-12.91,27.38-15.41,34.06-49.49,0,0-.39.1-1.13.27-45.74,10.49-89.44-14.68-89.69-60.81l-.69-78.8h-77.64l.92,90.07h0c-.64,27-19.87,50.05-46.65,56.26h0Z"/>
        <path class="st0" d="M260.23,432.46c-6.9,0-12.5-5.6-12.5-12.5v-25.83c0-6.9,5.6-12.5,12.5-12.5s12.5,5.6,12.5,12.5v25.83c0,6.91-5.6,12.5-12.5,12.5Z"/>
        <path class="st0" d="M165.38,432.46c-6.9,0-12.5-5.6-12.5-12.5v-25.83c0-6.9,5.6-12.5,12.5-12.5s12.5,5.6,12.5,12.5v25.83c0,6.91-5.6,12.5-12.5,12.5Z"/>
        <path class="st0" d="M355.08,432.46c-6.9,0-12.5-5.6-12.5-12.5v-25.83c0-6.9,5.6-12.5,12.5-12.5s12.5,5.6,12.5,12.5v25.83c0,6.91-5.6,12.5-12.5,12.5Z"/>
        <path class="st0" d="M212.81,525.59c-6.9,0-12.5-5.6-12.5-12.5v-25.83c0-6.9,5.6-12.5,12.5-12.5s12.5,5.6,12.5,12.5v25.83c0,6.91-5.6,12.5-12.5,12.5Z"/>
        <path class="st0" d="M307.66,525.59c-6.9,0-12.5-5.6-12.5-12.5v-25.83c0-6.9,5.6-12.5,12.5-12.5s12.5,5.6,12.5,12.5v25.83c0,6.91-5.6,12.5-12.5,12.5Z"/>
        <path class="st0" d="M89.5,339.32c-6.9,0-12.5-5.6-12.5-12.5v-25.83c0-6.9,5.6-12.5,12.5-12.5s12.5,5.6,12.5,12.5v25.83c0,6.9-5.59,12.5-12.5,12.5Z"/>
        <path class="st0" d="M430.95,339.32c-6.9,0-12.5-5.6-12.5-12.5v-25.83c0-6.9,5.6-12.5,12.5-12.5s12.5,5.6,12.5,12.5v25.83c0,6.9-5.59,12.5-12.5,12.5Z"/>
        <path class="st0" d="M318.83,352.24c-6.9,0-12.5-5.6-12.5-12.5v-25.83c0-6.9,5.6-12.5,12.5-12.5s12.5,5.6,12.5,12.5v25.83c0,6.9-5.6,12.5-12.5,12.5Z"/>
        <path class="st0" d="M196.18,339.32c-6.9,0-12.5-5.6-12.5-12.5v-25.83c0-6.9,5.6-12.5,12.5-12.5s12.5,5.6,12.5,12.5v25.83c0,6.9-5.6,12.5-12.5,12.5Z"/>
        <path class="st0" d="M260.23,597.32c-6.9,0-12.5-5.6-12.5-12.5v-25.83c0-6.9,5.6-12.5,12.5-12.5s12.5,5.6,12.5,12.5v25.83c0,6.91-5.6,12.5-12.5,12.5Z"/>
      </g>
      <g id="half-berry">
        <path class="st5" d="M700.16,780.08c153.28-61.72,59.28-240.02,54.04-249.71h-409.89c0,18.84,6.59,37.71,19.71,52.7,74.74,85.44,229.26,240.05,336.14,197.01h0Z"/>
        <g>
          <path class="st4" d="M610.87,642.55c-71.37,0-137.89-35.64-142.29-38.04-6.06-3.31-8.28-10.89-4.97-16.95,3.29-6.06,10.89-8.3,16.96-4.99,1.55.85,155.89,83.34,233.16-10.2,4.39-5.32,12.27-6.08,17.59-1.68s6.08,12.27,1.68,17.59c-34.06,41.24-78.98,54.27-122.13,54.27h0Z"/>
          <path class="st4" d="M496.54,660.88c-3.56,0-7.09-1.51-9.56-4.44-4.45-5.28-3.77-13.16,1.5-17.61l30.87-26.04-10.25-38.04c-1.8-6.66,2.15-13.53,8.81-15.33,6.71-1.79,13.53,2.16,15.32,8.82l12.33,45.73c1.26,4.69-.3,9.68-4.01,12.81l-36.96,31.16c-2.34,1.98-5.2,2.95-8.04,2.95h-.01Z"/>
          <path class="st4" d="M556.08,694.07c-4.83,0-9.44-2.82-11.47-7.54-2.74-6.33.16-13.69,6.5-16.44,15.24-6.6,27.13-19.37,32.63-35.06l3.26-9.28c4.76-19.72-.79-40.16-14.92-54.77l-3.53-3.66c-4.8-4.97-4.66-12.88.31-17.68,4.98-4.79,12.88-4.66,17.68.31l3.53,3.66c20.29,20.99,28.16,50.43,21.05,78.75-.09.37-.2.73-.33,1.09l-3.45,9.84c-7.81,22.24-24.67,40.37-46.29,49.73-1.62.71-3.31,1.04-4.96,1.04h-.01Z"/>
          <path class="st4" d="M634.16,723.51c-3.53,0-7.04-1.49-9.51-4.38-4.49-5.25-3.86-13.14,1.39-17.62,25.24-21.57,43.63-49.81,53.17-81.67l5.51-18.41c1.98-6.62,9-10.36,15.56-8.39,6.62,1.98,10.37,8.95,8.39,15.56l-5.51,18.41c-10.93,36.47-31.97,68.81-60.88,93.51-2.36,2.01-5.24,2.99-8.12,2.99Z"/>
        </g>
        <path class="st3" d="M700.16,741.31c-106.88,43.04-261.4-111.57-336.14-197.01-3.8-4.34-6.98-9.04-9.68-13.93h-10.03c0,18.84,6.59,37.71,19.71,52.7,74.75,85.44,229.26,240.05,336.14,197.01,77.55-31.23,91.77-92.27,86.25-146.25-4.74,42.26-26.95,83.6-86.26,107.48h.01Z"/>
      </g>
    </g>
  </g>
</svg>